<svg width="29" height="27" viewBox="0 0 29 27" fill="none" xmlns="http://www.w3.org/2000/svg">
<path d="M12.6875 8.06213V6.24963H1.8125C0.813812 6.24963 0 7.06345 0 8.06213V11.6871H13.0699C12.818 10.5797 12.6875 9.38707 12.6875 8.06213ZM28.9257 15.3121C27.6896 17.2171 25.8046 18.8374 23.1039 20.3889C22.6889 20.6264 22.2213 20.7496 21.75 20.7496C21.2787 20.7496 20.8111 20.6264 20.4015 20.3926C17.7009 18.8374 15.8159 17.2153 14.5779 15.3121H0V24.3746C0 25.3751 0.813812 26.1871 1.8125 26.1871H27.1875C28.188 26.1871 29 25.3751 29 24.3746V15.3121H28.9257ZM8.15625 20.7496H4.53125C4.031 20.7496 3.625 20.3436 3.625 19.8434C3.625 19.3431 4.031 18.9371 4.53125 18.9371H8.15625C8.6565 18.9371 9.0625 19.3431 9.0625 19.8434C9.0625 20.3436 8.6565 20.7496 8.15625 20.7496Z" fill="white"/>
<path d="M28.4508 3.60514L22.1071 0.886394C21.9939 0.837961 21.8722 0.812988 21.7491 0.812988C21.626 0.812988 21.5043 0.837961 21.3911 0.886394L15.0474 3.60514C14.7157 3.74652 14.5 4.07458 14.5 4.43708V8.06208C14.5 13.0483 16.3433 15.9628 21.2987 18.8175C21.4383 18.8972 21.5941 18.9371 21.75 18.9371C21.9059 18.9371 22.0617 18.8972 22.2013 18.8175C27.1567 15.97 29 13.0555 29 8.06208V4.43708C29 4.07458 28.7843 3.74652 28.4508 3.60514ZM25.1774 7.72314L21.5524 12.2544C21.3784 12.4683 21.1174 12.5933 20.8438 12.5933H20.8057C20.6632 12.5871 20.5241 12.5474 20.3997 12.4776C20.2753 12.4077 20.1692 12.3095 20.0897 12.191L18.2772 9.47221C17.9999 9.05533 18.1123 8.49346 18.5292 8.21614C18.9424 7.94064 19.5061 8.04939 19.7853 8.46808L20.9108 10.1555L23.7601 6.59214C24.0736 6.20246 24.6446 6.14083 25.0343 6.45077C25.4258 6.76071 25.4874 7.33164 25.1774 7.72314Z" fill="white"/>
</svg>
