<svg width="23" height="28" viewBox="0 0 23 28" fill="none" xmlns="http://www.w3.org/2000/svg">
<path d="M19.9239 0.00488281C20.5123 0.738813 20.8655 1.66915 20.8655 2.6808V24.6045C20.8655 25.6162 20.5123 26.5465 19.9239 27.2804C21.3421 27.1978 22.4705 26.0205 22.4705 24.5846V2.7007C22.4705 1.26489 21.3421 0.0874887 19.9239 0.00488281ZM8.31642 10.4326C8.38046 11.5241 8.57317 12.5454 8.86689 13.3166C9.19496 14.1777 9.54122 14.4452 9.63025 14.4452C9.71927 14.4452 10.0655 14.1777 10.3936 13.3166C10.6874 12.5454 10.88 11.5241 10.9441 10.4326H8.31642ZM9.63025 4.81497C9.54122 4.81497 9.19496 5.08242 8.86689 5.94352C8.57312 6.71474 8.38046 7.73608 8.31642 8.82756H10.9441C10.88 7.73608 10.6873 6.71474 10.3936 5.94352C10.0655 5.08242 9.71927 4.81497 9.63025 4.81497ZM12.5517 8.82756H14.3781C14.1267 7.33552 13.1869 6.07433 11.8975 5.3832C12.2589 6.3366 12.4851 7.53732 12.5517 8.82756ZM6.70881 8.82756C6.77542 7.53732 7.00157 6.3366 7.36302 5.3832C6.07364 6.07433 5.13379 7.33552 4.88239 8.82756H6.70881Z" fill="white"/>
<path d="M16.5232 0H0V27.2856H16.5232C18.0325 27.2856 19.2605 26.074 19.2605 24.5848V2.70085C19.2605 1.21159 18.0325 0 16.5232 0ZM12.0378 23.273H7.22267V21.668H12.0378V23.273ZM13.6428 20.063H5.61763V18.4579H13.6428V20.063ZM9.63023 16.0504C6.09015 16.0504 3.21008 13.1703 3.21008 9.63022C3.21008 6.09015 6.09015 3.21007 9.63023 3.21007C13.1703 3.21007 16.0504 6.09015 16.0504 9.63022C16.0504 13.1703 13.1703 16.0504 9.63023 16.0504Z" fill="white"/>
<path d="M12.5517 10.4326C12.4851 11.7229 12.2589 12.9236 11.8975 13.877C13.1868 13.1858 14.1267 11.9247 14.3781 10.4326H12.5517ZM6.70881 10.4326H4.88239C5.13379 11.9247 6.07364 13.1858 7.36302 13.877C7.00157 12.9236 6.77542 11.7229 6.70881 10.4326Z" fill="white"/>
</svg>
