<svg width="14" height="14" viewBox="0 0 14 14" fill="none" xmlns="http://www.w3.org/2000/svg">
<path d="M11.6666 12.4844V6.60927C11.6666 6.12234 11.4618 5.65536 11.0971 5.31105C10.7325 4.96674 10.2379 4.77331 9.72218 4.77331L4.66658 4.77331L4.66658 6.60927C4.66654 6.7545 4.62091 6.89645 4.53544 7.01719C4.44998 7.13793 4.32852 7.23204 4.18641 7.28761C4.04431 7.34318 3.88795 7.35772 3.7371 7.3294C3.58624 7.30108 3.44767 7.23116 3.3389 7.12848L0.227756 4.19094C0.0819426 4.05322 3.05176e-05 3.86646 3.05176e-05 3.67173C3.05176e-05 3.47699 0.0819426 3.29023 0.227756 3.15252L3.3389 0.21497C3.44767 0.112295 3.58624 0.0423784 3.7371 0.0140543C3.88795 -0.0142689 4.04431 0.000274658 4.18641 0.0558453C4.32852 0.111417 4.44998 0.205521 4.53544 0.326261C4.62091 0.447001 4.66654 0.588957 4.66658 0.734181V2.57015L9.72218 2.57015C10.8567 2.57015 11.9448 2.9957 12.7471 3.75318C13.5493 4.51066 14 5.53803 14 6.60927V12.4844C14 12.6791 13.9181 12.8659 13.7722 13.0037C13.6263 13.1414 13.4285 13.2188 13.2222 13.2188H12.4444C12.2381 13.2188 12.0403 13.1414 11.8945 13.0037C11.7486 12.8659 11.6666 12.6791 11.6666 12.4844Z" fill="#7251A2"/>
</svg>
