<svg width="19" height="61" viewBox="0 0 19 61" fill="none" xmlns="http://www.w3.org/2000/svg">
<path d="M7.37641 60.3813C7.78887 61.2062 9.12936 61.2062 9.54182 60.3813C13.0477 53.9882 16.2443 47.492 18.1003 40.4802C18.3066 39.4491 17.1723 38.4179 16.2443 39.0366C14.182 40.4802 12.429 42.2332 10.8823 44.2954C11.2948 29.8594 13.2539 14.9078 9.85116 0.677994C9.64493 -0.353152 7.89215 -0.146926 7.99527 0.884389C9.85116 15.6298 8.40756 30.272 8.2015 45.0174C6.44855 43.4707 4.69561 41.924 3.04577 40.3773C2.32397 39.6555 0.777083 40.0679 0.880198 41.3053C1.70528 48.1107 3.9738 54.5038 7.37641 60.3813ZM8.51068 48.1107C9.12936 49.0387 10.8823 48.8325 10.8823 47.3889L10.8823 47.1827C12.1197 45.9453 13.2539 44.7079 14.5944 43.4705C12.9446 48.2138 10.8823 52.6477 8.51084 57.0816C6.44855 53.0602 4.90183 48.9356 4.07692 44.5017C5.21118 45.5328 6.44855 46.564 7.58298 47.6982C7.78887 48.1107 8.2015 48.2138 8.51068 48.1107Z" fill="#67C6B0"/>
</svg>
