<svg width="29" height="26" viewBox="0 0 29 26" fill="none" xmlns="http://www.w3.org/2000/svg">
<path d="M12.6875 7.24902V5.43652H1.8125C0.813812 5.43652 0 6.25034 0 7.24902V10.874H13.0699C12.818 9.76659 12.6875 8.57396 12.6875 7.24902ZM28.9257 14.499C27.6896 16.404 25.8046 18.0243 23.1039 19.5758C22.6889 19.8133 22.2213 19.9365 21.75 19.9365C21.2787 19.9365 20.8111 19.8133 20.4015 19.5795C17.7009 18.0243 15.8159 16.4021 14.5779 14.499H0V23.5615C0 24.562 0.813812 25.374 1.8125 25.374H27.1875C28.188 25.374 29 24.562 29 23.5615V14.499H28.9257ZM8.15625 19.9365H4.53125C4.031 19.9365 3.625 19.5305 3.625 19.0303C3.625 18.53 4.031 18.124 4.53125 18.124H8.15625C8.6565 18.124 9.0625 18.53 9.0625 19.0303C9.0625 19.5305 8.6565 19.9365 8.15625 19.9365Z" fill="black"/>
<path d="M28.4508 2.79216L22.1071 0.0734057C21.9939 0.0249725 21.8722 0 21.7491 0C21.626 0 21.5043 0.0249725 21.3911 0.0734057L15.0474 2.79216C14.7157 2.93353 14.5 3.26159 14.5 3.62409V7.24909C14.5 12.2353 16.3433 15.1498 21.2987 18.0045C21.4383 18.0842 21.5941 18.1241 21.75 18.1241C21.9059 18.1241 22.0617 18.0842 22.2013 18.0045C27.1567 15.157 29 12.2425 29 7.24909V3.62409C29 3.26159 28.7843 2.93353 28.4508 2.79216ZM25.1774 6.91016L21.5524 11.4414C21.3784 11.6553 21.1174 11.7803 20.8438 11.7803H20.8057C20.6632 11.7741 20.5241 11.7345 20.3997 11.6646C20.2753 11.5947 20.1692 11.4965 20.0897 11.378L18.2772 8.65922C17.9999 8.24234 18.1123 7.68047 18.5292 7.40316C18.9424 7.12766 19.5061 7.23641 19.7853 7.65509L20.9108 9.34253L23.7601 5.77916C24.0736 5.38947 24.6446 5.32784 25.0343 5.63778C25.4258 5.94772 25.4874 6.51866 25.1774 6.91016Z" fill="black"/>
</svg>
